<?xml version="1.0" encoding="utf-8"?>
<!-- Generator: Adobe Illustrator 21.0.0, SVG Export Plug-In . SVG Version: 6.00 Build 0)  -->
<svg version="1.1" id="Camada_1" xmlns="http://www.w3.org/2000/svg" xmlns:xlink="http://www.w3.org/1999/xlink" x="0px" y="0px"
	 viewBox="0 0 23 20" style="enable-background:new 0 0 23 20;" xml:space="preserve">
<g>
	<g>
		<path d="M18.9,12.9c-1.1-1.1-2.5-1.9-4-2.4c1.6-1,2.6-2.8,2.6-4.8c0-3.2-2.7-5.8-6.1-5.8S5.4,2.6,5.4,5.8c0,2,1,3.7,2.6,4.8
			c-1.5,0.5-2.8,1.3-4,2.4C2.1,14.8,1,17.3,1,20h1.6c0-4.7,4-8.4,8.9-8.4s8.9,3.8,8.9,8.4H22C22,17.3,20.9,14.8,18.9,12.9z M11.5,10
			c-2.4,0-4.4-1.9-4.4-4.2s2-4.2,4.4-4.2s4.4,1.9,4.4,4.2S13.9,10,11.5,10z"/>
	</g>
</g>
</svg>
